<svg width="720" height="420" viewBox="0 0 720 420" fill="none" xmlns="http://www.w3.org/2000/svg">
  <defs>
    <linearGradient id="card" x1="84" y1="64" x2="612" y2="360" gradientUnits="userSpaceOnUse">
      <stop stop-color="#1D4ED8" stop-opacity="0.34"/>
      <stop offset="1" stop-color="#7C3AED" stop-opacity="0.34"/>
    </linearGradient>
    <linearGradient id="bar" x1="0" y1="0" x2="1" y2="1">
      <stop stop-color="#60A5FA"/>
      <stop offset="1" stop-color="#A78BFA"/>
    </linearGradient>
  </defs>

  <rect x="60" y="44" width="600" height="332" rx="28" fill="url(#card)" stroke="#374151"/>
  <rect x="92" y="78" width="536" height="28" rx="14" fill="#0F172A"/>
  <circle cx="112" cy="92" r="5" fill="#22C55E"/>
  <circle cx="129" cy="92" r="5" fill="#EAB308"/>
  <circle cx="146" cy="92" r="5" fill="#EF4444"/>

  <rect x="92" y="132" width="326" height="80" rx="16" fill="#111827" stroke="#334155"/>
  <rect x="108" y="149" width="124" height="11" rx="5.5" fill="url(#bar)"/>
  <rect x="108" y="170" width="210" height="8" rx="4" fill="#6B7280"/>
  <rect x="108" y="184" width="180" height="8" rx="4" fill="#4B5563"/>

  <rect x="92" y="232" width="246" height="112" rx="16" fill="#111827" stroke="#334155"/>
  <rect x="108" y="252" width="96" height="10" rx="5" fill="#34D399"/>
  <rect x="108" y="272" width="210" height="8" rx="4" fill="#6B7280"/>
  <rect x="108" y="286" width="184" height="8" rx="4" fill="#4B5563"/>
  <rect x="108" y="306" width="86" height="24" rx="12" fill="#16A34A"/>

  <rect x="358" y="132" width="270" height="212" rx="16" fill="#111827" stroke="#334155"/>
  <rect x="374" y="150" width="120" height="10" rx="5" fill="#A78BFA"/>
  <rect x="374" y="170" width="238" height="8" rx="4" fill="#6B7280"/>
  <rect x="374" y="184" width="202" height="8" rx="4" fill="#4B5563"/>
  <rect x="374" y="206" width="80" height="80" rx="14" fill="#1F2937"/>
  <rect x="466" y="206" width="146" height="12" rx="6" fill="#22D3EE"/>
  <rect x="466" y="226" width="126" height="8" rx="4" fill="#6B7280"/>
  <rect x="466" y="240" width="100" height="8" rx="4" fill="#4B5563"/>
  <rect x="374" y="304" width="238" height="24" rx="12" fill="#2563EB"/>
</svg>
